<svg width="20" height="20" viewBox="0 0 20 20" fill="none" xmlns="http://www.w3.org/2000/svg">
<path fill-rule="evenodd" clip-rule="evenodd" d="M15.2929 4.96325C15.5443 4.7128 15.9469 4.7128 16.1956 4.96325L16.367 5.13492C16.6162 5.38536 16.6162 5.7905 16.367 6.0381L15.6109 6.7969C15.9413 7.18343 16.2305 7.60623 16.4716 8.0585C16.9934 9.03746 17.2898 10.1554 17.2898 11.3427C17.2898 15.104 14.3235 18.1727 10.6066 18.3277L10.3118 18.3337C8.92833 18.3337 7.63876 17.9303 6.55386 17.2345L6.3246 17.081C4.51594 15.8175 3.33203 13.7182 3.33203 11.3427C3.33203 7.89756 5.82317 5.03523 9.09933 4.46209L9.39934 4.41632V3.22018L9.40179 3.20402L9.40423 3.18908H8.67001C8.35682 3.18908 8.09741 2.96363 8.04363 2.66578L8.0333 2.55088V2.3056C8.0333 1.99159 8.25795 1.73123 8.55538 1.67718L8.67001 1.66699H11.8015C12.114 1.66699 12.3755 1.89245 12.4297 2.1907L12.44 2.3056V2.55088C12.44 2.86462 12.2133 3.12484 11.916 3.1789L11.8015 3.18908H10.9174L10.9195 3.20402L10.9208 3.22018V4.38277C12.1237 4.48681 13.2398 4.89534 14.1909 5.53422L14.5018 5.7556L15.2929 4.96325ZM10.3118 6.17989L10.0464 6.18654C7.32217 6.3248 5.15536 8.58071 5.15536 11.3427C5.15536 13.3931 6.3481 15.1643 8.07636 15.9984L8.3048 16.1019C8.92168 16.3634 9.59981 16.5079 10.3118 16.5079L10.5771 16.5011C13.3019 16.3627 15.4668 14.1061 15.4668 11.3427C15.4668 8.49161 13.16 6.17989 10.3118 6.17989ZM8.18732 8.27784L8.26243 8.33502L10.185 10.2601C10.302 10.2044 10.4349 10.1736 10.5728 10.1736C11.0882 10.1736 11.5075 10.5917 11.5075 11.1076C11.5075 11.6252 11.0882 12.0423 10.5728 12.0423C10.0591 12.0423 9.64028 11.6252 9.64028 11.1076C9.64028 11.038 9.64829 10.9699 9.66283 10.9038L9.68945 10.8066L7.74293 8.85479C7.62939 8.7407 7.61037 8.56686 7.68616 8.43308L7.74293 8.35838L7.7667 8.33502C7.88119 8.22052 8.05341 8.20151 8.18732 8.27784Z" fill="#CFD5D8" style="fill:#CFD5D8;fill:color(display-p3 0.8118 0.8353 0.8471);fill-opacity:1;"/>
</svg>
