<svg preserveAspectRatio="none" width="100%" height="100%" overflow="visible" style="display: block;" viewBox="0 0 13.9578 16.6667" fill="none" xmlns="http://www.w3.org/2000/svg">
<path id="path_0" fill-rule="evenodd" clip-rule="evenodd" d="M11.9609 3.29626C12.2123 3.04581 12.6149 3.04581 12.8635 3.29626L13.0349 3.46793C13.2842 3.71837 13.2842 4.12351 13.0349 4.3711L12.2789 5.12991C12.6093 5.51644 12.8985 5.93924 13.1395 6.3915C13.6613 7.37047 13.9578 8.48837 13.9578 9.67567C13.9578 13.437 10.9915 16.5057 7.27458 16.6607L6.97972 16.6667C5.5963 16.6667 4.30673 16.2633 3.22183 15.5675L2.99257 15.414C1.18391 14.1505 0 12.0512 0 9.67567C0 6.23056 2.49114 3.36824 5.76729 2.79509L6.06731 2.74932V1.55319L6.06976 1.53703L6.0722 1.52209H5.33798C5.02479 1.52209 4.76538 1.29664 4.7116 0.998791L4.70127 0.883891V0.638607C4.70127 0.324601 4.92591 0.0642412 5.22335 0.0101864L5.33798 0H8.46949C8.782 0 9.04345 0.225455 9.09764 0.523707L9.10796 0.638607V0.883891C9.10796 1.19763 8.88128 1.45785 8.58398 1.5119L8.46949 1.52209H7.58533L7.5875 1.53703L7.58872 1.55319V2.71578C8.79165 2.81981 9.90778 3.22835 10.8589 3.86723L11.1698 4.08861L11.9609 3.29626ZM6.97972 4.5129L6.71434 4.51955C3.99014 4.65781 1.82333 6.91372 1.82333 9.67567C1.82333 11.7261 3.01607 13.4973 4.74433 14.3314L4.97277 14.4349C5.58965 14.6964 6.26778 14.8409 6.97972 14.8409L7.24511 14.8341C9.96985 14.6957 12.1348 12.4391 12.1348 9.67567C12.1348 6.82462 9.82792 4.5129 6.97972 4.5129ZM4.85529 6.61085L4.9304 6.66803L6.85301 8.59308C6.96995 8.5374 7.10291 8.50657 7.24076 8.50657C7.75619 8.50657 8.17545 8.92474 8.17545 9.44057C8.17545 9.95817 7.75619 10.3753 7.24076 10.3753C6.72711 10.3753 6.30825 9.95817 6.30825 9.44057C6.30825 9.37104 6.31626 9.30286 6.3308 9.23685L6.35742 9.13961L4.4109 7.18779C4.29736 7.07371 4.27834 6.89986 4.35413 6.76608L4.4109 6.69139L4.43467 6.66803C4.54916 6.55353 4.72138 6.53452 4.85529 6.61085Z" fill="var(--fill-0, #CFD5D8)" style="fill:#CFD5D8;fill:color(display-p3 0.8118 0.8353 0.8471);fill-opacity:1;"/>
</svg>
