<svg width="20" height="20" viewBox="0 0 20 20" fill="none" xmlns="http://www.w3.org/2000/svg">
<path fill-rule="evenodd" clip-rule="evenodd" d="M12.5986 12.1817C13.1207 12.1926 13.6232 12.3016 14.0997 12.5161C14.6871 12.7802 15.2986 12.9112 15.9432 12.8776C16.4321 12.8521 16.8967 12.7294 17.3442 12.533C17.6066 12.418 17.8691 12.3322 18.1317 12.2735V14.6487C17.8792 14.7064 17.6271 14.7899 17.3753 14.9008C16.8253 15.1434 16.2553 15.2776 15.6531 15.2634C15.1272 15.2509 14.6247 15.1336 14.1468 14.9159C13.534 14.6362 12.8926 14.5161 12.2212 14.5678C11.7728 14.6024 11.3426 14.7139 10.9329 14.9005C10.3856 15.1496 9.81314 15.2779 9.21072 15.2634C8.68755 15.2509 8.18805 15.1336 7.71247 14.917C7.09964 14.6383 6.45872 14.5164 5.78714 14.5674C5.33847 14.6014 4.9083 14.7129 4.49839 14.8989C3.95114 15.1478 3.37905 15.2774 2.77664 15.2637C2.39447 15.2546 2.02505 15.1895 1.66797 15.0714V12.6879C2.12897 12.8382 2.6048 12.9064 3.09872 12.8759C3.55339 12.8482 3.99072 12.7424 4.40672 12.5564C4.96489 12.3064 5.54647 12.1689 6.1598 12.1817C6.69355 12.1926 7.20489 12.3095 7.69164 12.5279C8.26905 12.7869 8.87172 12.9105 9.50497 12.8774C9.98522 12.8521 10.4439 12.7369 10.8826 12.5407C11.4285 12.2969 11.9993 12.1692 12.5986 12.1817ZM10.0077 4.2002C13.3519 4.2002 16.0724 6.92061 16.0724 10.2646C16.0724 11.0387 15.9249 11.7789 15.6594 12.4599C15.335 12.4476 15.0157 12.3917 14.695 12.288C14.964 11.6671 15.1138 10.9833 15.1138 10.2646C15.1138 7.44911 12.8232 5.15853 10.0077 5.15853C7.19214 5.15853 4.90155 7.44911 4.90155 10.2646C4.90155 10.8293 4.99505 11.3721 5.16505 11.8799C4.89047 11.9465 4.61639 12.0394 4.34439 12.1614C4.31655 12.1739 4.28847 12.1851 4.26047 12.1967C4.05589 11.5894 3.94322 10.9401 3.94322 10.2646C3.94322 6.92061 6.66372 4.2002 10.0077 4.2002ZM7.8743 9.04878C7.9348 8.95603 8.05797 8.93011 8.15114 8.99061L9.3588 9.7787C9.67147 9.47036 10.176 9.46661 10.4933 9.77636C10.5584 9.8397 10.6099 9.91203 10.6502 9.98903L13.0431 9.96095C13.2105 9.95886 13.3491 10.094 13.3512 10.2614V10.2902C13.3531 10.459 13.2196 10.5961 13.0505 10.5984L10.6892 10.6283C10.6528 10.7345 10.5911 10.8361 10.5076 10.9219C10.1951 11.2421 9.68122 11.2498 9.36072 10.9372C9.14155 10.7235 9.0698 10.4167 9.14555 10.1415L7.92205 9.3412C7.82972 9.28095 7.80355 9.15661 7.8638 9.06436L7.8743 9.04878Z" fill="#CFD5D8" style="fill:#CFD5D8;fill:color(display-p3 0.8118 0.8353 0.8471);fill-opacity:1;"/>
</svg>
