<svg preserveAspectRatio="none" width="100%" height="100%" overflow="visible" style="display: block;" viewBox="0 0 16.4638 11.0645" fill="none" xmlns="http://www.w3.org/2000/svg">
<path id="path_0" fill-rule="evenodd" clip-rule="evenodd" d="M10.9306 7.9815C11.4528 7.99242 11.9553 8.10142 12.4318 8.31592C13.0192 8.58 13.6306 8.711 14.2753 8.67742C14.7641 8.65192 15.2288 8.52925 15.6763 8.33283C15.9386 8.21783 16.2011 8.132 16.4638 8.07333V10.4485C16.2113 10.5063 15.9592 10.5898 15.7073 10.7006C15.1573 10.9432 14.5873 11.0774 13.9852 11.0633C13.4593 11.0508 12.9568 10.9334 12.4788 10.7157C11.866 10.436 11.2246 10.3159 10.5533 10.3676C10.1048 10.4022 9.67467 10.5137 9.26492 10.7003C8.71767 10.9494 8.14517 11.0777 7.54275 11.0633C7.01958 11.0508 6.52008 10.9334 6.0445 10.7168C5.43167 10.4381 4.79075 10.3162 4.11917 10.3672C3.6705 10.4013 3.24033 10.5128 2.83042 10.6988C2.28317 10.9476 1.71108 11.0772 1.10867 11.0635C0.7265 11.0544 0.357083 10.9893 0 10.8713V8.48775C0.461 8.638 0.936833 8.70617 1.43075 8.67575C1.88542 8.648 2.32275 8.54225 2.73875 8.35625C3.29692 8.10625 3.8785 7.96875 4.49183 7.9815C5.02558 7.99242 5.53692 8.10933 6.02367 8.32775C6.60108 8.58675 7.20375 8.71033 7.837 8.67717C8.31725 8.65192 8.77592 8.53667 9.21458 8.3405C9.7605 8.09675 10.3313 7.969 10.9306 7.9815ZM8.33975 0C11.6839 0 14.4044 2.72042 14.4044 6.06442C14.4044 6.8385 14.2569 7.57867 13.9914 8.25967C13.667 8.24742 13.3478 8.1915 13.027 8.08783C13.296 7.46692 13.4458 6.78308 13.4458 6.06442C13.4458 3.24892 11.1553 0.958333 8.33975 0.958333C5.52417 0.958333 3.23358 3.24892 3.23358 6.06442C3.23358 6.62908 3.32708 7.17192 3.49708 7.67975C3.2225 7.74633 2.94842 7.83925 2.67642 7.96125C2.64858 7.97375 2.6205 7.98492 2.5925 7.9965C2.38792 7.38917 2.27525 6.73992 2.27525 6.06442C2.27525 2.72042 4.99575 0 8.33975 0ZM6.20633 4.84858C6.26683 4.75583 6.39 4.72992 6.48317 4.79042L7.69083 5.5785C8.0035 5.27017 8.508 5.26642 8.82533 5.57617C8.89042 5.6395 8.94192 5.71183 8.98225 5.78883L11.3751 5.76075C11.5425 5.75867 11.6812 5.89383 11.6833 6.06125V6.09C11.6852 6.25883 11.5516 6.39592 11.3825 6.39817L9.02125 6.42808C8.98483 6.53433 8.92317 6.63592 8.83967 6.72167C8.52708 7.04192 8.01325 7.04958 7.69275 6.737C7.47358 6.52333 7.40183 6.2165 7.47758 5.94133L6.25408 5.141C6.16175 5.08075 6.13558 4.95642 6.19583 4.86417L6.20633 4.84858Z" fill="var(--fill-0, #CFD5D8)" style="fill:#CFD5D8;fill:color(display-p3 0.8118 0.8353 0.8471);fill-opacity:1;"/>
</svg>
