<svg preserveAspectRatio="none" width="100%" height="100%" overflow="visible" style="display: block;" viewBox="0 0 36.1335 23.5278" fill="none" xmlns="http://www.w3.org/2000/svg">
<path id="Fill 7" fill-rule="evenodd" clip-rule="evenodd" d="M24.3266 0C20.9907 0 17.794 1.41765 15.5578 3.88968C15.5578 3.88968 14.6518 5.00866 14.3908 5.41396C14.3908 5.41396 13.9399 6.17172 13.9207 6.20539C13.0844 7.74692 12.6137 9.41739 12.5221 11.1693C12.5241 11.2138 12.5248 11.3182 12.5266 11.6203C12.5278 11.8652 12.5328 12.2431 12.5328 12.2431C12.2847 15.586 9.45502 18.2028 6.08947 18.2028C4.12338 18.2028 2.64521 17.6602 1.62336 16.4342L0 22.1029C1.7437 23.2245 3.62379 23.5278 6.08947 23.5278C9.43442 23.5278 12.6372 22.1036 14.8751 19.6202C14.9067 19.5849 14.9357 19.5511 14.9645 19.5168L15.0118 19.4633C15.3097 19.12 15.9911 18.1684 16.0604 18.0584C16.0604 18.0584 16.1302 17.9525 16.146 17.9263C16.203 17.8349 16.2556 17.7441 16.3082 17.6517L16.426 17.449C16.4775 17.3558 16.5277 17.2586 16.5772 17.1625L16.6047 17.1115C16.6305 17.0614 16.6565 17.0121 16.6809 16.9615C16.7235 16.8766 16.8835 16.5314 16.9152 16.4577C16.9558 16.3658 16.9942 16.2731 17.032 16.1803C17.0647 16.1008 17.0963 16.0207 17.1262 15.9413C17.1619 15.8488 17.1949 15.7573 17.2279 15.6659C17.2563 15.5832 17.2856 15.4975 17.3144 15.4113C17.3437 15.3214 17.3714 15.2319 17.3982 15.1419C17.4265 15.0505 17.5275 14.68 17.5467 14.6043C17.5701 14.5089 17.5913 14.4151 17.6124 14.322C17.6339 14.2236 17.6532 14.1394 17.6701 14.0543C17.6897 13.9529 17.7074 13.8495 17.7246 13.7475L17.7321 13.7036C17.7442 13.6345 17.7566 13.564 17.7666 13.4938C17.781 13.4016 17.8188 13.0909 17.8188 13.0909C17.825 13.0354 17.8316 12.9813 17.8374 12.9259C17.8484 12.8135 17.8562 12.6999 17.8642 12.5861L17.8845 12.2234C17.8904 12.07 17.8845 11.2844 17.8845 11.2844C18.1321 7.94252 20.961 5.32444 24.3266 5.32444C27.8901 5.32444 30.7891 8.21354 30.7891 11.7644C30.7891 15.3148 27.8901 18.2028 24.3266 18.2028C22.088 18.2028 20.9741 17.286 20.4364 16.4168C19.9311 18.2767 19.0147 20.0152 17.7611 21.4887C18.7478 22.3907 21.1906 23.5278 24.3266 23.5278C30.8365 23.5278 36.1335 18.2508 36.1335 11.7644C36.1335 5.27749 30.8365 0 24.3266 0" fill="var(--fill-0, #00AEFF)" style="fill:#00AEFF;fill:color(display-p3 0.0000 0.6824 1.0000);fill-opacity:1;"/>
</svg>
