<svg width="179" height="179" viewBox="0 0 179 179" fill="none" xmlns="http://www.w3.org/2000/svg">
<path fill-rule="evenodd" clip-rule="evenodd" d="M90.0368 2.14735C89.7394 2.14436 89.4417 2.14287 89.1436 2.14287C88.8457 2.14287 88.5481 2.14436 88.2508 2.14735C77.0951 2.25951 66.4422 4.4712 56.6682 8.40616C56.1154 8.6287 55.5655 8.85675 55.0184 9.09025C44.9918 13.3697 35.9324 19.4777 28.2593 26.9953C27.8341 27.412 27.4131 27.833 26.9964 28.2582C19.4781 35.9309 13.3693 44.99 9.08914 55.0164C8.8556 55.5635 8.62751 56.1134 8.40493 56.6662C4.46913 66.4403 2.2567 77.0936 2.14398 88.2497C2.14096 88.5485 2.13945 88.8476 2.13945 89.147C2.13945 89.4436 2.14093 89.7399 2.14389 90.0357C2.25553 101.192 4.46699 111.846 8.40194 121.621C8.62447 122.173 8.85251 122.723 9.086 123.27C13.3655 133.298 19.4739 142.358 26.9921 150.032C27.4087 150.457 27.8297 150.878 28.255 151.294C35.9282 158.813 44.9881 164.922 55.0154 169.203C55.5624 169.436 56.1124 169.664 56.6651 169.887C66.4399 173.822 77.0939 176.035 88.2508 176.147C88.5481 176.15 88.8457 176.151 89.1436 176.151C89.4417 176.151 89.7394 176.15 90.0368 176.147V178.282H89.1436V178.291C39.911 178.291 0 138.38 0 89.147C0 39.9144 39.911 0.00341797 89.1436 0.00341797C89.4417 0.00341797 89.7394 0.00488083 90.0368 0.00779984V2.14735Z" fill="black" style="fill:black;fill-opacity:1;"/>
<path d="M88.252 0L90.038 0V0.00419983V2.14375V11.0732H88.252V2.14375V0Z" fill="black" style="fill:black;fill-opacity:1;"/>
<path d="M90.038 178.278H89.1448H88.252V176.143V167.205H90.038V176.143V178.278Z" fill="black" style="fill:black;fill-opacity:1;"/>
<path d="M55.858 171.835L54.2079 171.151L55.0166 169.199L58.4454 160.921L60.0955 161.604L56.6663 169.883L55.858 171.835Z" fill="black" style="fill:black;fill-opacity:1;"/>
<path d="M26.7455 152.801L25.4827 151.539L26.9933 150.028L33.3126 143.709L34.5755 144.972L28.2562 151.291L26.7455 152.801Z" fill="black" style="fill:black;fill-opacity:1;"/>
<path d="M7.1329 124.076L6.44943 122.426L8.40315 121.617L16.6797 118.189L17.3632 119.839L9.0872 123.267L7.1329 124.076Z" fill="black" style="fill:black;fill-opacity:1;"/>
<path d="M0.00585938 90.0321L0.0058594 88.2461H2.14518H11.079V90.0321H2.1451H0.00585938Z" fill="black" style="fill:black;fill-opacity:1;"/>
<path d="M6.44944 55.8521L7.13292 54.202L9.09034 55.0128L17.3632 58.4396L16.6797 60.0896L8.40614 56.6626L6.44944 55.8521Z" fill="black" style="fill:black;fill-opacity:1;"/>
<path d="M25.4827 26.7397L26.7456 25.4768L28.2605 26.9917L34.5755 33.3067L33.3126 34.5696L26.9976 28.2546L25.4827 26.7397Z" fill="black" style="fill:black;fill-opacity:1;"/>
<path d="M54.2079 7.12705L55.858 6.44358L56.6694 8.40256L60.0955 16.6739L58.4454 17.3573L55.0196 9.08665L54.2079 7.12705Z" fill="black" style="fill:black;fill-opacity:1;"/>
</svg>
