<svg preserveAspectRatio="none" width="100%" height="100%" overflow="visible" style="display: block;" viewBox="0 0 176 176" fill="none" xmlns="http://www.w3.org/2000/svg">
<g id="Frame 148">
<path id="Ellipse 3" fill-rule="evenodd" clip-rule="evenodd" d="M88.8817 2.11643C88.5882 2.11348 88.2943 2.112 88 2.112C87.7059 2.112 87.4121 2.11348 87.1186 2.11643C76.106 2.22715 65.5898 4.41046 55.9412 8.29494C55.3955 8.51463 54.8526 8.73976 54.3126 8.97026C44.4146 13.1948 35.4715 19.2245 27.8968 26.6456C27.477 27.0569 27.0614 27.4725 26.6501 27.8923C19.2282 35.4666 13.1978 44.4094 8.97253 54.3072C8.74199 54.8473 8.51683 55.3902 8.2971 55.9358C4.41179 65.5846 2.22775 76.1012 2.11647 87.1142C2.11349 87.4091 2.112 87.7044 2.112 88C2.112 88.2928 2.11346 88.5852 2.11639 88.8773C2.2266 99.8906 4.40969 110.408 8.29415 120.057C8.51383 120.603 8.73894 121.145 8.96943 121.686C13.1941 131.584 19.2241 140.528 26.6458 148.103C27.0571 148.523 27.4727 148.939 27.8925 149.35C35.4673 156.772 44.4109 162.803 54.3096 167.028C54.8496 167.259 55.3925 167.484 55.9382 167.704C65.5876 171.589 76.1049 173.773 87.1186 173.884C87.4121 173.887 87.7059 173.888 88 173.888C88.2943 173.888 88.5882 173.887 88.8817 173.884V175.991H88V176C39.3989 176 0 136.601 0 88C0 39.3989 39.3989 0 88 0C88.2943 0 88.5882 0.00144409 88.8817 0.00432566V2.11643Z" fill="var(--fill-0, black)" style="fill:black;fill-opacity:1;"/>
<g id="Rectangle 1">
<path d="M87.1188 0.000173001H88.8819V0.00431895V2.11643V10.9313H87.1188V2.11642V0.000173001Z" fill="var(--fill-0, black)" style="fill:black;fill-opacity:1;"/>
<path d="M88.8819 175.991H88.0002H87.1188V173.884V165.06H88.8819V173.884V175.991Z" fill="var(--fill-0, black)" style="fill:black;fill-opacity:1;"/>
<path d="M55.1404 169.63L53.5115 168.956L54.3098 167.028L57.6946 158.857L59.3235 159.531L55.9384 167.704L55.1404 169.63Z" fill="var(--fill-0, black)" style="fill:black;fill-opacity:1;"/>
<path d="M26.4014 150.841L25.1547 149.595L26.646 148.103L32.8842 141.865L34.1309 143.112L27.8927 149.35L26.4014 150.841Z" fill="var(--fill-0, black)" style="fill:black;fill-opacity:1;"/>
<path d="M7.04039 122.485L6.36569 120.856L8.29435 120.057L16.4647 116.673L17.1394 118.301L8.96962 121.686L7.04039 122.485Z" fill="var(--fill-0, black)" style="fill:black;fill-opacity:1;"/>
<path d="M0.00478703 88.8773L0.00478705 87.1142H2.11667H10.9359V88.8773H2.11658H0.00478703Z" fill="var(--fill-0, black)" style="fill:black;fill-opacity:1;"/>
<path d="M6.36571 55.1357L7.04041 53.5068L8.97272 54.3072L17.1395 57.69L16.4647 59.3189L8.2973 55.9358L6.36571 55.1357Z" fill="var(--fill-0, black)" style="fill:black;fill-opacity:1;"/>
<path d="M25.1548 26.3968L26.4015 25.1501L27.897 26.6456L34.1309 32.8796L32.8842 34.1263L26.6502 27.8923L25.1548 26.3968Z" fill="var(--fill-0, black)" style="fill:black;fill-opacity:1;"/>
<path d="M53.5115 7.03579L55.1404 6.36109L55.9414 8.29494L59.3235 16.4601L57.6946 17.1348L54.3128 8.97025L53.5115 7.03579Z" fill="var(--fill-0, black)" style="fill:black;fill-opacity:1;"/>
</g>
</g>
</svg>
